<?xml version="1.0" standalone="no"?><!DOCTYPE svg PUBLIC "-//W3C//DTD SVG 1.1//EN" "http://www.w3.org/Graphics/SVG/1.1/DTD/svg11.dtd"><svg t="1714382230658" class="icon" viewBox="0 0 1365 1024" version="1.1" xmlns="http://www.w3.org/2000/svg" p-id="4247" xmlns:xlink="http://www.w3.org/1999/xlink" width="266.6015625" height="200"><path d="M0.136533 0h1365.333334v1024H0.136533z" fill="#2E42A5" p-id="4248"></path><path d="M1365.469867 0v143.36l-449.7408 345.429333 141.312 95.914667L1365.469867 829.986133v185.1392l-20.957867 8.874667h-197.700267L682.8032 667.648 218.794667 1024H21.0944L0.136533 1015.125333v-185.1392l308.497067-245.282133 141.175467-95.982933L0.136533 143.291733V0h270.7456l384.341334 311.842133 27.579733 18.705067 27.579733-18.705067L1094.724267 0H1365.469867z" fill="#FFFFFF" p-id="4249"></path><path d="M1365.469867 0v21.2992L774.280533 509.269333l4.096 3.003734 197.632 67.7888 389.393067 318.6688L1365.469867 1024h-88.951467l-531.933867-441.5488-42.734933-13.380267L150.7328 1024H0.136533v-73.796267l543.5392-439.842133L0.136533 89.634133 0.136533 0h100.420267l555.281067 419.703467L1174.664533 0H1365.469867z" fill="#F50100" p-id="4250"></path><path d="M801.245867 0v384L1365.469867 383.931733v256.068267h-564.155734V1024H564.224V640H0.136533V383.931733l564.155734 0.068267V0h237.021866z" fill="#F50100" p-id="4251"></path><path d="M843.912533 0v341.333333H1365.469867v85.333334h-606.890667L758.647467 0H606.890667v426.666667H1.297067v170.666666h605.5936V1024h-85.333334v-341.333333H0.068267V341.333333h521.489066V0h322.3552zM1365.469867 597.333333V682.666667h-521.557334v341.333333h-85.265066l-0.068267-426.666667H1365.469867z" fill="#FFFFFF" p-id="4252"></path></svg>